<?xml version="1.0" encoding="UTF-8"?>
<svg id="svg17" clip-rule="evenodd" fill-rule="evenodd" stroke-linejoin="round" stroke-miterlimit="2" version="1.1" viewBox="0 0 256 256" xml:space="preserve" xmlns="http://www.w3.org/2000/svg" xmlns:serif="http://www.serif.com/" xmlns:xlink="http://www.w3.org/1999/xlink">
    <g id="g4" transform="matrix(1.8824 0 0 1.8686 -7.5294 -5.6058)">
        <path id="path2" d="m140 37.25c0-18.903-15.235-34.25-34-34.25h-68c-18.765 0-34 15.347-34 34.25v68.5c0 18.903 15.235 34.25 34 34.25h68c18.765 0 34-15.347 34-34.25v-68.5z" fill="#111"/>
    </g>
    <g id="g12" transform="matrix(2.021 0 0 2.021 -13.474 -13.474)">
        <g id="D" transform="matrix(-.67488 8.265e-17 -8.265e-17 -.67488 223.75 109.04)">
            <path id="path6" d="m172.54-2.511c3.246-3.246 6.838-5.729 10.775-7.449 3.936-1.72 8.218-2.58 12.845-2.58h75.695v19.441h-75.695c-1.72 0-3.337 0.321-4.851 0.963s-2.834 1.526-3.961 2.653c-1.126 1.126-2.011 2.447-2.653 3.961s-0.963 3.131-0.963 4.851v77.026c0 1.599 0.352 3.143 1.054 4.633 0.703 1.49 1.63 2.81 2.78 3.961 1.151 1.151 2.471 2.078 3.961 2.78 1.49 0.703 3.035 1.054 4.633 1.054h75.695v19.441h-75.695c-2.301 0-4.536-0.242-6.704-0.726-2.168-0.485-4.252-1.169-6.25-2.054-1.999-0.884-3.895-1.944-5.688-3.179-1.792-1.236-3.452-2.592-4.978-4.07-3.174-3.077-5.639-6.62-7.395-10.629-1.756-4.01-2.635-8.34-2.635-12.992v-73.464c0-4.652 0.86-8.94 2.58-12.864 1.721-3.925 4.204-7.51 7.45-10.757z" fill="#fff" fill-rule="nonzero"/>
        </g>
        <g id="Left-Symbol" transform="matrix(.49479 -0 -0 .49479 6.6667 6.6667)" serif:id="Left Symbol">
            <path id="path516" d="m47.198 80.802h71.604c2.6955 0 5.157 0.35663 7.3839 1.0699 2.2274 0.71326 4.2347 1.6888 6.022 2.9264 1.7877 1.2377 3.3457 2.7061 4.6742 4.4054 1.3289 1.6992 2.4328 3.5399 3.3122 5.5222 0.8794 1.9822 1.539 4.0592 1.9786 6.2303 0.43971 2.1712 0.64999 4.3583 0.63088 6.5612 0 2.2446-0.21984 4.4683-0.65956 6.6712-0.43969 2.2027-1.0992 4.2951-1.9786 6.2777-0.8794 1.9824-1.9833 3.8129-3.3122 5.4914-1.3284 1.6783-2.8818 3.1309-4.6596 4.3581-1.7777 1.2272-3.7803 2.1871-6.0077 2.8794-2.2269 0.69229-4.6885 1.0384-7.3839 1.0384h-0.31543l25.808 34.677h-20.79l-25.808-34.677h-42.928v34.677h-16.747l-0.02869-78.006c0-1.5104 0.21985-2.8845 0.65956-4.1222 0.4397-1.2377 1.0659-2.3025 1.8782-3.194 0.81268-0.89154 1.7828-1.5785 2.9107-2.061 1.1279-0.48249 2.3801-0.72376 3.7565-0.72376zm71.287 36.596c1.2426 0 2.3323-0.2832 3.269-0.8496 0.93672-0.56641 1.7206-1.3111 2.3514-2.2342 0.63088-0.92303 1.1039-1.9773 1.4193-3.1626 0.31543-1.1853 0.47816-2.3966 0.48751-3.6343 9e-3 -1.2377-0.13849-2.4493-0.44437-3.6346-0.30587-1.1852-0.76935-2.2393-1.3909-3.1623-0.62108-0.92301-1.4051-1.6677-2.3514-2.2342-0.94629-0.56644-2.0598-0.84961-3.3407-0.84961h-63.716v19.761z" fill="url(#linearGradient1114)" stroke-width=".99998"/>
        </g>
    </g>
    <defs id="defs15">
        
    <linearGradient id="linearGradient1114" x1="37.994" x2="144.3" y1="120.96" y2="120.96" gradientTransform="matrix(1 0 0 1.0969 0 -7.8312)" gradientUnits="userSpaceOnUse"><stop id="stop1108" stop-color="#c957e6" offset="0"/><stop id="stop1110" stop-color="#1a9fff" offset="1"/></linearGradient></defs>
</svg>
