<?xml version="1.0" encoding="UTF-8"?>
<svg id="svg29" version="1.1" viewBox="0 0 1280 800" xml:space="preserve" xmlns="http://www.w3.org/2000/svg" xmlns:xlink="http://www.w3.org/1999/xlink"><defs id="defs33"><pattern id="pattern12124" patternTransform="rotate(.00011575 -1.1425e8 -6200489)" xlink:href="#pattern12103"/><pattern id="pattern12103" width="1279.9397" height="203.31536" patternTransform="translate(.032224 155.72)" patternUnits="userSpaceOnUse"><g id="g11731" transform="scale(2.0068 .47817)"><rect id="rect8806" x="1.2495e-5" y="354.33" width="637.8" height="70.866" fill="#980098" stroke-width="1.0208"/><rect id="rect8807" x="1.2495e-5" y="283.46" width="637.8" height="70.866" fill="#00f" stroke-width="1.0208"/><rect id="rect9429" x="1.2495e-5" y="212.6" width="637.8" height="70.866" fill="#009800" stroke-width="1.0208"/><rect id="rect10051" x="1.2495e-5" y="141.73" width="637.8" height="70.866" fill="#ff0" stroke-width="1.0208"/><rect id="rect10673" y="70.866" width="637.8" height="70.866" fill="#ff9800" stroke-width="1.0208"/><rect id="rect11295" x="1.2495e-5" width="637.8" height="70.866" fill="#f00" stroke-width="1.0208"/></g></pattern></defs><g id="DECK" transform="matrix(.47693 0 0 .47693 1.1014e-13 161.54)"><path id="path20" d="m1650 476.92h78.84v204.66l270.54-204.8h117.86l-163.89 124.06 180.62 254.2-97.06-0.27-146.34-206.28-161.73 122.58v83.835h-78.84v-378zm-512.74 37.395c12.06-12.06 25.4-21.285 40.03-27.675 14.62-6.39 30.53-9.585 47.72-9.585h360.18v72.225h-360.18c-6.39 0-12.4 1.192-18.02 3.577-5.63 2.385-10.53 5.67-14.72 9.855-4.18 4.185-7.47 9.09-9.85 14.715-2.39 5.625-3.58 11.633-3.58 18.023v141.21c0 5.94 1.3 11.677 3.92 17.212 2.61 5.535 6.05 10.44 10.32 14.715 4.28 4.275 9.18 7.718 14.72 10.328 5.53 2.61 11.27 3.915 17.21 3.915h360.18v72.225h-360.18c-8.55 0-16.85-0.9-24.91-2.7-8.05-1.8-15.79-4.343-23.22-7.628-7.42-3.285-14.47-7.222-21.12-11.812-6.66-4.59-12.83-9.63-18.5-15.12-11.79-11.43-20.95-24.593-27.47-39.488-6.53-14.895-9.79-30.982-9.79-48.262v-127.98c0-17.28 3.19-33.21 9.59-47.79 6.39-14.58 15.61-27.9 27.67-39.96zm-587.26 297.4v-291.33c0-6.48 1.035-12.375 3.105-17.685s5.018-9.878 8.842-13.703c3.826-3.825 8.393-6.772 13.703-8.842s11.205-3.105 17.685-3.105h440.36v72.225h-404.72v76.545h355.59v72.225h-355.59v84.78h404.72v72.225h-440.36c-6.48 0-12.375-1.035-17.685-3.105s-9.877-5.018-13.703-8.843c-3.824-3.825-6.772-8.392-8.842-13.702s-3.105-11.205-3.105-17.685zm-102.07 151.02c-12.06 12.06-25.403 21.285-40.028 27.675s-30.532 9.585-47.722 9.585h-281.2v-72.225h281.2c6.39 0 12.397-1.192 18.022-3.578 5.625-2.384 10.53-5.67 14.715-9.855s7.47-9.089 9.855-14.715c2.385-5.624 3.578-11.632 3.578-18.022v-286.15c0-5.94-1.305-11.678-3.915-17.213s-6.053-10.44-10.328-14.715-9.18-7.717-14.715-10.327-11.272-3.915-17.212-3.915h-281.2v-72.225h281.2c8.55 0 16.852 0.9 24.907 2.7s15.795 4.342 23.22 7.627 14.468 7.223 21.128 11.813 12.825 9.63 18.495 15.12c11.79 11.43 20.947 24.592 27.472 39.487s9.788 30.983 9.788 48.263v272.92c0 17.28-3.195 33.21-9.585 47.79s-15.615 27.9-27.675 39.96z" fill="#fff"/></g><g id="Gamepad" transform="matrix(.47693 0 0 .47693 1.1098e-13 477.99)"><path id="path23" d="m282.08 100c0 27.596-22.404 50-50 50h-182.08c-27.596 0-50-22.404-50-50v-50c0-27.596 22.404-50 50-50h182.08c27.596 0 50 22.404 50 50zm-240.67-39.201h-12.702c-5.406 0-9.794 4.389-9.794 9.794v9.794c0 5.405 4.388 9.793 9.794 9.793h12.702v12.036c0 5.519 4.481 10 10 10h10c5.52 0 10-4.481 10-10v-12.036h12.71c5.406 0 9.794-4.388 9.794-9.793v-9.794c0-5.405-4.388-9.794-9.794-9.794h-12.71v-12.036c0-5.519-4.48-10-10-10h-10c-5.519 0-10 4.481-10 10zm146.75-3.672c0 10.134 8.402 18.363 18.75 18.363s18.75-8.229 18.75-18.363c0-10.135-8.402-18.364-18.75-18.364s-18.75 8.229-18.75 18.364zm37.5 36.726c0 10.135 8.402 18.363 18.75 18.363s18.75-8.228 18.75-18.363-8.402-18.363-18.75-18.363-18.75 8.228-18.75 18.363z" fill="url(#pattern12103)"/></g><g id="RETRO" transform="matrix(.47693 0 0 .47693 1.1014e-13 161.54)"><g id="text750" transform="matrix(2.0967,0,0,2.0967,-93.103,-496.13)" fill="url(#pattern12124)" stroke-linecap="round" stroke-linejoin="round" stroke-width="2.315" style="paint-order:fill markers stroke;shape-inside:url(#rect752);white-space:pre" aria-label="Powered by ES-DE Frontend"><path id="path8936" d="m1111.4 399.13c-5.623-5.4513-9.9916-11.729-13.101-18.833-3.1144-7.1039-4.6691-14.776-4.6691-23.018v-61.037c0-8.2413 1.5261-15.839 4.5737-22.792 3.0428-6.9536 7.4449-13.306 13.197-19.058 5.7518-5.7518 12.114-10.151 19.092-13.199 6.9727-3.0476 14.561-4.5714 22.759-4.5714h111.52c8.1984 0 15.786 1.5238 22.759 4.5714 6.9775 3.0476 13.34 7.4472 19.092 13.199 5.7518 5.7518 10.154 12.104 13.201 19.058 3.0428 6.9536 4.569 14.551 4.569 22.792v61.037c0 8.2413-1.5548 15.914-4.6691 23.018-3.1096 7.1039-7.4783 13.382-13.101 18.833-2.7042 2.6183-5.6468 5.0221-8.8184 7.2112-3.1764 2.1891-6.5387 4.0668-10.078 5.6335-3.5436 1.5667-7.235 2.7796-11.074 3.638-3.8441 0.85847-7.8026 1.2877-11.88 1.2877h-111.52c-4.0778 0-8.0363-0.42924-11.88-1.2877-3.8393-0.85847-7.5307-2.0713-11.074-3.638-3.5388-1.5667-6.9012-3.4444-10.073-5.6335-3.1763-2.1891-6.119-4.5928-8.8232-7.2112zm19.831-38.696c0 2.833 0.62 5.5691 1.8695 8.2089 1.2448 2.6398 2.8854 4.9791 4.9219 7.018 2.0413 2.0389 4.3782 3.6809 7.0204 4.9257 2.6374 1.2448 5.375 1.8672 8.208 1.8672h111.52c2.8329 0 5.5705-0.62239 8.2079-1.8672 2.6422-1.2448 4.9792-2.8868 7.0204-4.9257 2.0365-2.0389 3.6771-4.3782 4.9267-7.018 1.2448-2.6398 1.8648-5.3759 1.8648-8.2089v-67.347c0-3.0476-0.5675-5.913-1.7074-8.5952-1.1351-2.6832-2.7042-5.0221-4.6978-7.018-1.9983-1.996-4.3352-3.5631-7.0204-4.7001-2.6803-1.138-5.5466-1.7064-8.5942-1.7064h-111.52c-3.0476 0-5.9139 0.56849-8.5943 1.7064-2.6851 1.137-5.0221 2.7042-7.0204 4.7001-1.9935 1.996-3.5626 4.3348-4.6977 7.018-1.1399 2.6822-1.7074 5.5476-1.7074 8.5952zm-279.24-123.81h160.77c6.0522 0 11.58 0.7297 16.578 2.1891 5.003 1.4594 9.51 3.4554 13.521 5.9878 4.0157 2.5325 7.5116 5.5371 10.497 9.014 2.9808 3.4768 5.4608 7.2431 7.4353 11.3 1.9745 4.0558 3.4577 8.3052 4.4402 12.748 0.992 4.4431 1.4594 8.9176 1.4213 13.425 0 4.5928-0.496 9.1427-1.4833 13.65-0.9872 4.507-2.4705 8.7884-4.4402 12.845-1.9745 4.0563-4.4545 7.8016-7.4401 11.236-2.9808 3.4339-6.4672 6.4061-10.464 8.9171-3.9871 2.511-8.4846 4.475-13.488 5.8915-4.9982 1.4165-10.526 2.1247-16.578 2.1247h-0.7107l57.952 70.953h-46.682l-57.947-70.953h-96.383v70.953h-37.606l-0.062-159.61c0-3.0905 0.49601-5.902 1.4832-8.4345 0.98248-2.5325 2.3894-4.7111 4.2161-6.5349 1.8219-1.8247 4.0014-3.2302 6.5339-4.2175 2.5325-0.98724 5.3464-1.4809 8.4369-1.4809zm160.06 74.88c2.7948 0 5.2367-0.57947 7.3447-1.7384 2.0985-1.1589 3.8584-2.6827 5.2797-4.5714 1.4164-1.8886 2.4752-4.0458 3.1858-6.471 0.7059-2.4252 1.0731-4.9038 1.0922-7.4363 0.024-2.5325-0.31-5.0116-0.9968-7.4368-0.6867-2.4252-1.7265-4.5819-3.1239-6.4705-1.3926-1.8886-3.1525-3.4124-5.2796-4.5714-2.1223-1.1589-4.6214-1.7384-7.5021-1.7384h-143.06v40.434zm-443.04-40.434v-34.446h230.76v34.446h-96.511v145.83h-37.668v-145.83zm-262.31 125.17v-138.94c0-3.0905 0.49362-5.902 1.4809-8.4345 0.98725-2.5325 2.3932-4.7111 4.217-6.5354 1.8247-1.8242 4.0029-3.2298 6.5354-4.217 2.5325-0.98724 5.344-1.4809 8.4345-1.4809h210.02v34.446h-193.03v36.507h169.59v34.446h-169.59v40.434h193.03v34.446h-210.02c-3.0905 0-5.902-0.49362-8.4345-1.4809-2.5325-0.98724-4.7106-2.3932-6.5354-4.2175-1.8238-1.8242-3.2298-4.0024-4.217-6.5349-0.98724-2.5325-1.4809-5.344-1.4809-8.4345zm-241.64-159.61h160.77c6.0522 0 11.579 0.7297 16.579 2.1891 5.0011 1.4594 9.5081 3.4554 13.521 5.9878 4.0138 2.5325 7.5121 5.5371 10.495 9.014 2.9837 3.4768 5.4623 7.2431 7.4368 11.299s3.4554 8.3057 4.4426 12.748c0.98724 4.4426 1.4594 8.9176 1.4165 13.425 0 4.5928-0.49362 9.1427-1.4809 13.65-0.98724 4.507-2.4681 8.7884-4.4426 12.845-1.9745 4.0563-4.4531 7.8016-7.4368 11.236-2.9827 3.4339-6.4705 6.4061-10.462 8.9171s-8.4879 4.475-13.489 5.8915c-5.0001 1.4165-10.527 2.1247-16.579 2.1247h-0.70824l57.947 70.953h-46.679l-57.947-70.953h-96.385v70.953h-37.601l-0.06439-159.61c0-3.0905 0.49362-5.902 1.4809-8.4345 0.98724-2.5325 2.3932-4.7111 4.217-6.5354 1.8247-1.8242 4.0029-3.2298 6.5354-4.217 2.5325-0.98724 5.344-1.4809 8.4345-1.4809zm160.06 74.88c2.79 0 5.2367-0.57947 7.3399-1.7384s3.8631-2.6827 5.2796-4.5714c1.4165-1.8886 2.4786-4.0458 3.1868-6.471 0.70824-2.4252 1.0736-4.9038 1.0946-7.4363 0.0219-2.5325-0.31096-5.0116-0.99774-7.4368-0.68677-2.4252-1.7274-4.5819-3.1229-6.4705-1.3945-1.8886-3.1549-3.4124-5.2796-4.5714s-4.6248-1.7384-7.5007-1.7384h-143.06v40.434z" fill="url(#pattern12124)"/></g></g></svg>
